<?xml version="1.0" encoding="utf-8"?>
<!-- Generator: Adobe Illustrator 26.0.3, SVG Export Plug-In . SVG Version: 6.00 Build 0)  -->
<svg version="1.1" id="Layer_1" xmlns="http://www.w3.org/2000/svg" x="0px" y="0px"
     viewBox="0 0 269 269" style="enable-background:new 0 0 269 269;" xml:space="preserve">
<style type="text/css">
	.st0{fill:#E80032;}
</style>    <g transform="translate(0.000000,180.000000) scale(0.100000,-0.100000)">
	<path class="st0" d="M452,1270c-137-65-260-195-321-339C59,760,32,555,60,383C87,212,166,27,274-120c52-71,246-270,263-270
		c20,0,16,13-27,89C427-155,353,35,343,127c-7,62,3,123,21,123c7,0,35-32,62-72C492,81,547,18,601-23c90-69,93-63,21,45
		c-38,57-77,124-86,149c-19,49-18,110,0,116c6,2,32-27,57-64c62-92,167-193,251-242c39-22,72-38,75-36c2,3-7,18-21,33
		c-82,88-182,277-176,331c4,39,34,39,56,1c49-91,139-212,238-322c127-141,314-318,337-318c20,0,244,216,355,343
		c96,108,178,222,207,286c12,27,25,41,37,41c33,0,24-74-20-161c-38-76-46-87-122-184c-22-27-40-53-40-57c0-12,108,50,156,88
		c68,55,142,135,186,201c22,35,44,63,49,63s9-21,9-47c0-60-37-140-114-246c-31-43-56-80-56-83c0-9,66,30,108,65
		c50,41,144,156,184,224c41,71,68,58,68-33c0-83-82-306-168-457c-21-38-41-76-45-85c-29-78,188,122,291,268c64,89,137,228,153,287
		c4,18,18,66,29,107c27,92,37,276,21,375c-15,101-73,270-117,345c-43,74-117,156-184,204c-45,32-168,91-175,84c-2-2,9-31,25-65
		c42-89,53-142,48-241c-5-102-23-145-84-209c-69-71-75-61-45,76c11,46,17,89,14,97c-2,7-37,26-76,42c-245,101-550,145-847,123
		c-164-13-261-31-425-80c-117-35-194-67-201-85c-2-6,2-45,11-85c19-90,19-121,1-121c-20,0-79,69-105,123c-21,43-23,59-19,160
		c4,104,7,118,40,190c22,45,32,77,25,77S487,1287,452,1270z"/>
</g>
</svg>
